<svg id="그룹_293" data-name="그룹 293" xmlns="http://www.w3.org/2000/svg" width="28.257" height="16.484" viewBox="0 0 28.257 16.484">
  <rect id="사각형_188" data-name="사각형 188" width="28.257" height="1.268" transform="translate(0 13.947)" fill="#fff"/>
  <rect id="사각형_189" data-name="사각형 189" width="28.257" height="1.268" transform="translate(0 11.41)" fill="#fff"/>
  <rect id="사각형_190" data-name="사각형 190" width="28.257" height="1.268" transform="translate(0 8.874)" fill="#fff"/>
  <rect id="사각형_191" data-name="사각형 191" width="28.257" height="1.268" transform="translate(0 6.342)" fill="#fff"/>
  <rect id="사각형_192" data-name="사각형 192" width="28.257" height="1.268" transform="translate(0 3.805)" fill="#fff"/>
  <rect id="사각형_193" data-name="사각형 193" width="28.257" height="1.268" transform="translate(0 1.268)" fill="#fff"/>
  <rect id="사각형_194" data-name="사각형 194" width="28.257" height="1.268" transform="translate(0 15.215)" fill="#bd3d44"/>
  <rect id="사각형_195" data-name="사각형 195" width="28.257" height="1.268" transform="translate(0 12.679)" fill="#bd3d44"/>
  <rect id="사각형_196" data-name="사각형 196" width="28.257" height="1.268" transform="translate(0 10.142)" fill="#bd3d44"/>
  <rect id="사각형_197" data-name="사각형 197" width="28.257" height="1.268" transform="translate(0 7.61)" fill="#bd3d44"/>
  <rect id="사각형_198" data-name="사각형 198" width="28.257" height="1.268" transform="translate(0 5.073)" fill="#bd3d44"/>
  <rect id="사각형_199" data-name="사각형 199" width="28.257" height="1.268" transform="translate(0 2.537)" fill="#bd3d44"/>
  <rect id="사각형_200" data-name="사각형 200" width="28.257" height="1.268" transform="translate(0)" fill="#bd3d44"/>
  <rect id="사각형_201" data-name="사각형 201" width="11.913" height="7.483" transform="translate(0)" fill="#192f5d"/>
  <path id="패스_204" data-name="패스 204" d="M259.973,195.4l.282-.186.283.186-.106-.3.282-.182h-.348l-.111-.3-.106.3H259.8l.283.182Zm0,0" transform="translate(-259.145 -194.211)" fill="#fff"/>
  <path id="패스_205" data-name="패스 205" d="M260.255,214.116l-.106.3H259.8l.283.182-.111.3.282-.186.283.186-.106-.3.282-.182h-.348Zm0,0" transform="translate(-259.145 -212.234)" fill="#fff"/>
  <path id="패스_206" data-name="패스 206" d="M260.255,233.616l-.106.3H259.8l.283.182-.111.3.282-.186.283.186-.106-.3.282-.182h-.348Zm0,0" transform="translate(-259.145 -230.257)" fill="#fff"/>
  <path id="패스_207" data-name="패스 207" d="M260.255,253.116l-.106.3H259.8l.283.186-.111.3.282-.186.283.186-.106-.3.282-.186h-.348Zm0,0" transform="translate(-259.145 -248.279)" fill="#fff"/>
  <path id="패스_208" data-name="패스 208" d="M260.366,272.912l-.111-.3-.106.3H259.8l.283.187-.111.3.282-.186.283.186-.106-.3.282-.187Zm0,0" transform="translate(-259.145 -266.302)" fill="#fff"/>
  <path id="패스_209" data-name="패스 209" d="M281.817,195.4l.283-.186.277.186-.106-.3.282-.182h-.348l-.106-.3-.111.3h-.348l.282.182Zm0,0" transform="translate(-279.148 -194.211)" fill="#fff"/>
  <path id="패스_210" data-name="패스 210" d="M282.1,214.116l-.111.3h-.348l.282.182-.106.3.283-.186.277.186-.106-.3.282-.182h-.348Zm0,0" transform="translate(-279.148 -212.234)" fill="#fff"/>
  <path id="패스_211" data-name="패스 211" d="M282.1,233.616l-.111.3h-.348l.282.182-.106.3.283-.186.277.186-.106-.3.282-.182h-.348Zm0,0" transform="translate(-279.148 -230.257)" fill="#fff"/>
  <path id="패스_212" data-name="패스 212" d="M282.1,253.116l-.111.3h-.348l.282.186-.106.3.283-.186.277.186-.106-.3.282-.186h-.348Zm0,0" transform="translate(-279.148 -248.279)" fill="#fff"/>
  <path id="패스_213" data-name="패스 213" d="M282.206,272.912l-.106-.3-.111.3h-.348l.282.187-.106.3.283-.186.277.186-.106-.3.282-.187Zm0,0" transform="translate(-279.148 -266.302)" fill="#fff"/>
  <path id="패스_214" data-name="패스 214" d="M303.656,195.4l.283-.186.277.186-.106-.3.283-.182h-.348l-.106-.3-.111.3h-.348l.283.182Zm0,0" transform="translate(-299.151 -194.211)" fill="#fff"/>
  <path id="패스_215" data-name="패스 215" d="M303.939,214.116l-.111.3h-.348l.283.182-.106.3.283-.186.277.186-.106-.3.283-.182h-.348Zm0,0" transform="translate(-299.151 -212.234)" fill="#fff"/>
  <path id="패스_216" data-name="패스 216" d="M303.939,233.616l-.111.3h-.348l.283.182-.106.3.283-.186.277.186-.106-.3.283-.182h-.348Zm0,0" transform="translate(-299.151 -230.257)" fill="#fff"/>
  <path id="패스_217" data-name="패스 217" d="M303.939,253.116l-.111.3h-.348l.283.186-.106.3.283-.186.277.186-.106-.3.283-.186h-.348Zm0,0" transform="translate(-299.151 -248.279)" fill="#fff"/>
  <path id="패스_218" data-name="패스 218" d="M304.045,272.912l-.106-.3-.111.3h-.348l.283.187-.106.3.283-.186.277.186-.106-.3.283-.187Zm0,0" transform="translate(-299.151 -266.302)" fill="#fff"/>
  <path id="패스_219" data-name="패스 219" d="M325.551,195.4l.282-.186.283.186-.111-.3.283-.182h-.348l-.106-.3-.111.3h-.343l.278.182Zm0,0" transform="translate(-319.208 -194.211)" fill="#fff"/>
  <path id="패스_220" data-name="패스 220" d="M325.833,214.116l-.111.3h-.343l.278.182-.106.3.282-.186.283.186-.111-.3.283-.182h-.348Zm0,0" transform="translate(-319.208 -212.234)" fill="#fff"/>
  <path id="패스_221" data-name="패스 221" d="M325.833,233.616l-.111.3h-.343l.278.182-.106.3.282-.186.283.186-.111-.3.283-.182h-.348Zm0,0" transform="translate(-319.208 -230.257)" fill="#fff"/>
  <path id="패스_222" data-name="패스 222" d="M325.833,253.116l-.111.3h-.343l.278.186-.106.3.282-.186.283.186-.111-.3.283-.186h-.348Zm0,0" transform="translate(-319.208 -248.279)" fill="#fff"/>
  <path id="패스_223" data-name="패스 223" d="M325.939,272.912l-.106-.3-.111.3h-.343l.278.187-.106.3.282-.186.283.186-.111-.3.283-.187Zm0,0" transform="translate(-319.208 -266.302)" fill="#fff"/>
  <path id="패스_224" data-name="패스 224" d="M347.391,195.4l.283-.186.282.186-.111-.3.283-.182h-.348l-.106-.3-.106.3h-.348l.282.182Zm0,0" transform="translate(-339.211 -194.211)" fill="#fff"/>
  <path id="패스_225" data-name="패스 225" d="M347.673,214.116l-.106.3h-.348l.282.182-.111.3.283-.186.282.186-.111-.3.283-.182h-.348Zm0,0" transform="translate(-339.211 -212.234)" fill="#fff"/>
  <path id="패스_226" data-name="패스 226" d="M347.673,233.616l-.106.3h-.348l.282.182-.111.3.283-.186.282.186-.111-.3.283-.182h-.348Zm0,0" transform="translate(-339.211 -230.257)" fill="#fff"/>
  <path id="패스_227" data-name="패스 227" d="M347.673,253.116l-.106.3h-.348l.282.186-.111.3.283-.186.282.186-.111-.3.283-.186h-.348Zm0,0" transform="translate(-339.211 -248.279)" fill="#fff"/>
  <path id="패스_228" data-name="패스 228" d="M347.779,272.912l-.106-.3-.106.3h-.348l.282.187-.111.3.283-.186.282.186-.111-.3.283-.187Zm0,0" transform="translate(-339.211 -266.302)" fill="#fff"/>
  <path id="패스_229" data-name="패스 229" d="M369.236,195.4l.278-.186.282.186-.106-.3.283-.182h-.348l-.111-.3-.106.3h-.348l.283.182Zm0,0" transform="translate(-359.215 -194.211)" fill="#fff"/>
  <path id="패스_230" data-name="패스 230" d="M369.513,214.116l-.106.3h-.348l.283.182-.106.3.278-.186.282.186-.106-.3.283-.182h-.348Zm0,0" transform="translate(-359.215 -212.234)" fill="#fff"/>
  <path id="패스_231" data-name="패스 231" d="M369.513,233.616l-.106.3h-.348l.283.182-.106.3.278-.186.282.186-.106-.3.283-.182h-.348Zm0,0" transform="translate(-359.215 -230.257)" fill="#fff"/>
  <path id="패스_232" data-name="패스 232" d="M369.513,253.116l-.106.3h-.348l.283.186-.106.3.278-.186.282.186-.106-.3.283-.186h-.348Zm0,0" transform="translate(-359.215 -248.279)" fill="#fff"/>
  <path id="패스_233" data-name="패스 233" d="M369.624,272.912l-.111-.3-.106.3h-.348l.283.187-.106.3.278-.186.282.186-.106-.3.283-.187Zm0,0" transform="translate(-359.215 -266.302)" fill="#fff"/>
  <path id="패스_234" data-name="패스 234" d="M270.9,206.14l.278-.186.282.186-.106-.3.282-.186h-.348l-.111-.3-.106.3h-.348l.283.186Zm0,0" transform="translate(-269.145 -204.139)" fill="#fff"/>
  <path id="패스_235" data-name="패스 235" d="M271.173,224.858l-.106.3h-.348l.283.186-.106.3.278-.182.282.182-.106-.3.282-.186h-.348Zm0,0" transform="translate(-269.145 -222.162)" fill="#fff"/>
  <path id="패스_236" data-name="패스 236" d="M271.173,244.358l-.106.3h-.348l.283.186-.106.3.278-.182.282.182-.106-.3.282-.186h-.348Zm0,0" transform="translate(-269.145 -240.185)" fill="#fff"/>
  <path id="패스_237" data-name="패스 237" d="M271.173,263.858l-.106.3h-.348l.283.186-.106.3.278-.182.282.182-.106-.3.282-.186h-.348Zm0,0" transform="translate(-269.145 -258.207)" fill="#fff"/>
  <path id="패스_238" data-name="패스 238" d="M292.736,206.14l.283-.186.278.186-.106-.3.283-.186h-.348l-.106-.3-.111.3h-.348l.283.186Zm0,0" transform="translate(-289.148 -204.139)" fill="#fff"/>
  <path id="패스_239" data-name="패스 239" d="M293.018,224.858l-.111.3h-.348l.283.186-.106.3.283-.182.278.182-.106-.3.283-.186h-.348Zm0,0" transform="translate(-289.148 -222.162)" fill="#fff"/>
  <path id="패스_240" data-name="패스 240" d="M293.018,244.358l-.111.3h-.348l.283.186-.106.3.283-.182.278.182-.106-.3.283-.186h-.348Zm0,0" transform="translate(-289.148 -240.185)" fill="#fff"/>
  <path id="패스_241" data-name="패스 241" d="M293.018,263.858l-.111.3h-.348l.283.186-.106.3.283-.182.278.182-.106-.3.283-.186h-.348Zm0,0" transform="translate(-289.148 -258.207)" fill="#fff"/>
  <path id="패스_242" data-name="패스 242" d="M314.575,206.14l.283-.186.283.186-.111-.3.283-.186h-.348l-.106-.3-.106.3H314.4l.283.186Zm0,0" transform="translate(-309.15 -204.139)" fill="#fff"/>
  <path id="패스_243" data-name="패스 243" d="M314.857,224.858l-.106.3H314.4l.283.186-.106.3.283-.182.283.182-.111-.3.283-.186h-.348Zm0,0" transform="translate(-309.15 -222.162)" fill="#fff"/>
  <path id="패스_244" data-name="패스 244" d="M314.857,244.358l-.106.3H314.4l.283.186-.106.3.283-.182.283.182-.111-.3.283-.186h-.348Zm0,0" transform="translate(-309.15 -240.185)" fill="#fff"/>
  <path id="패스_245" data-name="패스 245" d="M314.857,263.858l-.106.3H314.4l.283.186-.106.3.283-.182.283.182-.111-.3.283-.186h-.348Zm0,0" transform="translate(-309.15 -258.207)" fill="#fff"/>
  <path id="패스_246" data-name="패스 246" d="M336.472,206.14l.282-.186.283.186-.111-.3.283-.186h-.348l-.106-.3-.106.3H336.3l.283.186Zm0,0" transform="translate(-329.211 -204.139)" fill="#fff"/>
  <path id="패스_247" data-name="패스 247" d="M336.755,224.858l-.106.3H336.3l.283.186-.111.3.282-.182.283.182-.111-.3.283-.186h-.348Zm0,0" transform="translate(-329.211 -222.162)" fill="#fff"/>
  <path id="패스_248" data-name="패스 248" d="M336.755,244.358l-.106.3H336.3l.283.186-.111.3.282-.182.283.182-.111-.3.283-.186h-.348Zm0,0" transform="translate(-329.211 -240.185)" fill="#fff"/>
  <path id="패스_249" data-name="패스 249" d="M336.755,263.858l-.106.3H336.3l.283.186-.111.3.282-.182.283.182-.111-.3.283-.186h-.348Zm0,0" transform="translate(-329.211 -258.207)" fill="#fff"/>
  <path id="패스_250" data-name="패스 250" d="M358.313,206.14l.283-.186.283.186-.106-.3.278-.186H358.7l-.106-.3-.106.3h-.348l.282.186Zm0,0" transform="translate(-349.215 -204.139)" fill="#fff"/>
  <path id="패스_251" data-name="패스 251" d="M358.6,224.858l-.106.3h-.348l.282.186-.111.3.283-.182.283.182-.106-.3.278-.186H358.7Zm0,0" transform="translate(-349.215 -222.162)" fill="#fff"/>
  <path id="패스_252" data-name="패스 252" d="M358.6,244.358l-.106.3h-.348l.282.186-.111.3.283-.182.283.182-.106-.3.278-.186H358.7Zm0,0" transform="translate(-349.215 -240.185)" fill="#fff"/>
  <path id="패스_253" data-name="패스 253" d="M358.6,263.858l-.106.3h-.348l.282.186-.111.3.283-.182.283.182-.106-.3.278-.186H358.7Zm0,0" transform="translate(-349.215 -258.207)" fill="#fff"/>
</svg>
