<svg id="그룹_292" data-name="그룹 292" xmlns="http://www.w3.org/2000/svg" width="28.257" height="16.484" viewBox="0 0 28.257 16.484">
  <path id="패스_183" data-name="패스 183" d="M245,212.76h28.257V196.276H245Zm8.7-2.144-1.047-1.572.571-.381,1.047,1.572Zm-1.238-1.861-1.047-1.569.571-.382,1.046,1.569Zm2.1,1.286-2.286-3.427.571-.382,2.286,3.427Zm8.573-.382,1.047-1.568.569.382L263.7,210.04Zm2.285-3.427.572.382-1.05,1.572-.57-.377Zm-1.048-5,.57-.381,1.05,1.572-.572.378Zm1.906,5.572.572.382-1.048,1.569-.572-.382Zm-2.287,3.43,1.048-1.572.572.381-1.046,1.572Zm1.429.95-.572-.381,1.049-1.569.572.378Zm1.238-1.858-.57-.378,1.046-1.572.571.382Zm1.047-8.044-.571.382-1.046-1.573.57-.381Zm-2.285-3.434,1.049,1.575-.572.378-1.049-1.572Zm-.855.572,2.286,3.43-.572.382-2.287-3.43Zm-.859.572,1.045,1.572-.569.382-1.048-1.572Zm-2.285,2.1a4.123,4.123,0,1,1-5.716,1.145,4.122,4.122,0,0,1,5.716-1.145Zm-6.288-1.714-2.286,3.427-.571-.378,2.286-3.43Zm-.857-.572-2.285,3.43-.571-.382,2.285-3.43Zm-1.429-.954.57.381-2.284,3.434-.572-.382Zm-1.714,9.528,2.284,3.427-.57.381-2.286-3.427Zm0,0" transform="translate(-245 -196.276)" fill="#e1e1e1"/>
  <path id="패스_184" data-name="패스 184" d="M471.424,231.535l-1.045-1.572-.572.382,1.047,1.572Zm0,0" transform="translate(-451.679 -227.246)" fill="#010101"/>
  <path id="패스_185" data-name="패스 185" d="M486.768,254.578l-1.05-1.572-.57.381,1.048,1.569Zm0,0" transform="translate(-465.782 -248.431)" fill="#010101"/>
  <path id="패스_186" data-name="패스 186" d="M481.12,222.889l2.288,3.43-.573.382-2.288-3.429Zm0,0" transform="translate(-461.552 -220.743)" fill="#010101"/>
  <path id="패스_187" data-name="패스 187" d="M492.674,217.343l-1.049-1.575-.572.382,1.048,1.573Zm0,0" transform="translate(-471.212 -214.196)" fill="#010101"/>
  <path id="패스_188" data-name="패스 188" d="M507.464,240.812l.571-.382-1.047-1.572-.57.381Zm0,0" transform="translate(-485.337 -235.424)" fill="#010101"/>
  <path id="패스_189" data-name="패스 189" d="M337.442,323.5l-2.286-3.427.572-.381,2.286,3.427Zm0,0" transform="translate(-327.886 -309.738)" fill="#010101"/>
  <path id="패스_190" data-name="패스 190" d="M325.66,328.784l-1.047-1.569.571-.381,1.047,1.569Zm0,0" transform="translate(-318.193 -316.306)" fill="#010101"/>
  <path id="패스_191" data-name="패스 191" d="M340.91,351.947l-1.046-1.572.571-.38,1.046,1.572Zm0,0" transform="translate(-332.213 -337.599)" fill="#010101"/>
  <path id="패스_192" data-name="패스 192" d="M314.544,334.014l2.286,3.427-.572.382-2.286-3.427Zm0,0" transform="translate(-308.41 -322.907)" fill="#010101"/>
  <path id="패스_193" data-name="패스 193" d="M335.732,233.771l2.285-3.427-.571-.382-2.286,3.43Zm0,0" transform="translate(-327.889 -227.246)" fill="#010101"/>
  <path id="패스_194" data-name="패스 194" d="M327.484,223.285l-2.283,3.429-.571-.38,2.283-3.429Zm0,0" transform="translate(-318.208 -220.758)" fill="#010101"/>
  <path id="패스_195" data-name="패스 195" d="M316.758,216.15l-.57-.382L313.9,219.2l.572.382Zm0,0" transform="translate(-308.346 -214.196)" fill="#010101"/>
  <path id="패스_196" data-name="패스 196" d="M469.812,344.134l1.047-1.569.572.381-1.047,1.569Zm0,0" transform="translate(-451.683 -330.768)" fill="#010101"/>
  <path id="패스_197" data-name="패스 197" d="M485.719,321.678l1.05-1.572-.572-.382-1.048,1.576Zm0,0" transform="translate(-465.782 -309.77)" fill="#010101"/>
  <path id="패스_198" data-name="패스 198" d="M480.511,351.6l1.048-1.572.573.382-1.048,1.572Zm0,0" transform="translate(-461.519 -337.631)" fill="#010101"/>
  <path id="패스_199" data-name="패스 199" d="M497.41,327.021l-1.049,1.568-.572-.383,1.049-1.568Zm0,0" transform="translate(-475.565 -316.126)" fill="#010101"/>
  <path id="패스_200" data-name="패스 200" d="M491.054,358.528l.572.381,1.049-1.572-.572-.378Zm0,0" transform="translate(-471.212 -344.001)" fill="#010101"/>
  <path id="패스_201" data-name="패스 201" d="M506.418,335.489l.57.378,1.047-1.568-.571-.382Zm0,0" transform="translate(-485.337 -322.817)" fill="#010101"/>
  <path id="패스_202" data-name="패스 202" d="M374.3,252.059a2.06,2.06,0,0,0,2.857-.573,2.06,2.06,0,1,1,3.427,2.285,4.12,4.12,0,1,0-6.855-4.572,2.062,2.062,0,0,0,.572,2.859Zm0,0" transform="translate(-363.028 -243.244)" fill="#b51e3b"/>
  <path id="패스_203" data-name="패스 203" d="M370.93,275.843a4.116,4.116,0,0,0,5.714-1.145,2.06,2.06,0,1,0-3.427-2.285,2.06,2.06,0,1,1-3.428-2.286,4.124,4.124,0,0,0,1.142,5.716Zm0,0" transform="translate(-359.088 -264.172)" fill="#273775"/>
</svg>
