<svg xmlns="http://www.w3.org/2000/svg" width="184" height="88.551" viewBox="0 0 184 88.551">
  <g id="그룹_415" data-name="그룹 415" transform="translate(491.912 -1484.669)">
    <g id="그룹_120" data-name="그룹 120" transform="translate(-491.912 1484.669)">
      <path id="패스_92" data-name="패스 92" d="M219.63,350.024a30.966,30.966,0,0,1-5.379,6.061q-1.129.982-2.323,1.851h15.4q-1.2-.872-2.327-1.851A31.014,31.014,0,0,1,219.63,350.024Zm-4.752-24.5H203.711V332.8H192.83v-7.269H182.088v32.408H205.5l-3.427-4.56a28.55,28.55,0,0,0,9.405-8.076,18.432,18.432,0,0,0,3.4-11.057Zm-11.167,22.664H192.83v-6.774h10.881Zm162.377-13.084V325.5H296.6l-15.208.02v-6.961H270.122v6.972l-14.277.016v-.02H224.381v8.714a18.449,18.449,0,0,0,3.4,11.057,28.562,28.562,0,0,0,9.408,8.076l-3.426,4.56h22.083V335.03H266a14.493,14.493,0,1,0,19.522,0h21.067c-.277,3.862-1.817,7.012-4.627,10.3a32.1,32.1,0,0,1-11.15,8.127l6.252,6.4a36.837,36.837,0,0,0,8.091-4.432,34.315,34.315,0,0,0,6.462-6.033l14.826,10.839,6.388-7.518-16.456-11.571a29.836,29.836,0,0,0,.678-3.2c.184-1.15.324-1.84.409-2.911h17.9v22.839h30.732v-10.2H346.234V335.108ZM245.513,348.192H235.18v-13.3h10.333Zm30.245,2.708a5.16,5.16,0,1,1,5.16-5.16A5.161,5.161,0,0,1,275.758,350.9Z" transform="translate(-182.088 -318.559)" fill="#fff"/>
      <g id="그룹_119" data-name="그룹 119" transform="translate(15.797 51.096)">
        <g id="그룹_117" data-name="그룹 117" transform="translate(3.417 30.378)">
          <path id="패스_93" data-name="패스 93" d="M209.4,437.475a.925.925,0,0,1-.925-.919v-5a.914.914,0,0,1,.273-.651.923.923,0,0,1,.652-.265h1.618c1.091,0,1.991.312,1.991,1.769a1.4,1.4,0,0,1-1.165,1.509v.015c1.013.143,1.282.8,1.282,1.738,0,1.735-1.508,1.808-2.116,1.808Zm.506-4.045h.96a.766.766,0,0,0,.753-.87.823.823,0,0,0-.827-.876h-.885Zm0,3h.8a.857.857,0,0,0,.986-.974c0-.608-.23-.974-.947-.974h-.839Z" transform="translate(-208.48 -430.514)" fill="#fff"/>
          <path id="패스_94" data-name="패스 94" d="M222.195,430.635v4.848a2.033,2.033,0,0,1-2.315,2.108c-1.578,0-2.335-.815-2.335-2.108v-3.932a.928.928,0,0,1,.269-.651.949.949,0,0,1,.654-.265h.507v4.755c0,.845.363,1.177.88,1.177.628,0,.913-.412.913-1.177v-3.839a.911.911,0,0,1,.923-.916Z" transform="translate(-210.945 -430.514)" fill="#fff"/>
          <path id="패스_95" data-name="패스 95" d="M228.5,437.546c-1.774,0-2.1-1.044-2.031-2.229h1.434c0,.655.027,1.2.814,1.2a.684.684,0,0,0,.722-.775c0-1.236-2.881-1.31-2.881-3.349,0-1.075.51-1.929,2.253-1.929,1.4,0,2.086.628,1.988,2.062h-1.391c0-.514-.087-1.033-.662-1.033a.668.668,0,0,0-.741.729c0,1.294,2.884,1.18,2.884,3.34C230.891,437.336,229.593,437.546,228.5,437.546Z" transform="translate(-213.37 -430.469)" fill="#fff"/>
          <path id="패스_96" data-name="패스 96" d="M234.4,437.475l1.708-6.169a.928.928,0,0,1,.336-.483.9.9,0,0,1,.553-.187h1.189l1.855,6.84h-.783a.929.929,0,0,1-.9-.7l-.2-.822H236.2l-.39,1.52Zm2.76-5.523h-.02l-.651,2.959h1.361Z" transform="translate(-215.53 -430.514)" fill="#fff"/>
          <path id="패스_97" data-name="패스 97" d="M244.259,437.475v-5.924a.918.918,0,0,1,.923-.916H246.2l1.82,4.739h.015v-4.739h1.337v6.84h-1.883l-1.87-5H245.6v5Z" transform="translate(-218.211 -430.514)" fill="#fff"/>
          <path id="패스_98" data-name="패스 98" d="M258.071,434.012c0-1.812,0-3.543,2.365-3.543,1.458,0,2.047.81,1.993,2.279h-1.4c0-.912-.164-1.251-.589-1.251-.806,0-.911.756-.911,2.514s.106,2.51.911,2.51c.663,0,.631-.853.652-1.391H262.5c0,1.824-.732,2.416-2.066,2.416C258.071,437.546,258.071,435.8,258.071,434.012Z" transform="translate(-221.967 -430.469)" fill="#fff"/>
          <path id="패스_99" data-name="패스 99" d="M271.193,430.635v4.848a2.039,2.039,0,0,1-2.323,2.108c-1.575,0-2.335-.815-2.335-2.108v-3.932a.918.918,0,0,1,.924-.916h.515v4.755c0,.845.355,1.177.877,1.177.628,0,.909-.412.909-1.177v-3.839a.914.914,0,0,1,.273-.651.938.938,0,0,1,.65-.265Z" transform="translate(-224.269 -430.514)" fill="#fff"/>
          <path id="패스_100" data-name="패스 100" d="M276.639,437.475a.925.925,0,0,1-.922-.919v-5a.919.919,0,0,1,.922-.916h.511v5.706h2.14v1.134Z" transform="translate(-226.766 -430.514)" fill="#fff"/>
          <path id="패스_101" data-name="패스 101" d="M285.776,430.635v1.134h-1.594v5.706h-.507a.925.925,0,0,1-.922-.919v-4.787H281.16v-.218a.923.923,0,0,1,.27-.651.933.933,0,0,1,.654-.265Z" transform="translate(-228.247 -430.514)" fill="#fff"/>
          <path id="패스_102" data-name="패스 102" d="M294.2,430.635v4.848a2.041,2.041,0,0,1-2.327,2.108c-1.57,0-2.33-.815-2.33-2.108v-3.932a.911.911,0,0,1,.923-.916h.511v4.755c0,.845.359,1.177.881,1.177.623,0,.908-.412.908-1.177v-3.839a.912.912,0,0,1,.923-.916Z" transform="translate(-230.527 -430.514)" fill="#fff"/>
          <path id="패스_103" data-name="패스 103" d="M300.1,437.475H299.6a.919.919,0,0,1-.924-.919v-5a.925.925,0,0,1,.269-.651.935.935,0,0,1,.655-.265h1.723c.973,0,1.6.623,1.6,1.792a1.47,1.47,0,0,1-1.27,1.672v.02a1.222,1.222,0,0,1,1.248,1.344,9.183,9.183,0,0,0,.159,2.012h-1.407a3.161,3.161,0,0,1-.151-1.321c0-.819.081-1.513-1.021-1.513H300.1Zm0-3.882h.636c.569,0,.729-.573.729-1.01,0-.654-.272-.9-.729-.9H300.1Z" transform="translate(-233.009 -430.514)" fill="#fff"/>
          <path id="패스_104" data-name="패스 104" d="M306.4,437.475l1.712-6.169a.892.892,0,0,1,.327-.483.916.916,0,0,1,.561-.187h1.185l1.858,6.84h-.791a.921.921,0,0,1-.893-.7l-.206-.822h-1.949l-.39,1.52Zm2.76-5.523h-.02l-.651,2.959h1.364Z" transform="translate(-235.112 -430.514)" fill="#fff"/>
          <path id="패스_105" data-name="패스 105" d="M317.182,437.475a.921.921,0,0,1-.65-.269.908.908,0,0,1-.273-.651v-5a.914.914,0,0,1,.273-.651.933.933,0,0,1,.65-.265h.51v5.706h2.145v1.134Z" transform="translate(-237.792 -430.514)" fill="#fff"/>
          <path id="패스_106" data-name="패스 106" d="M328.147,437.475a.915.915,0,0,1-.651-.269.926.926,0,0,1-.273-.651v-5a.919.919,0,0,1,.924-.916h2.63v1.048h-2.124v1.753h2.031v1.053h-2.031v2.986Z" transform="translate(-240.774 -430.514)" fill="#fff"/>
          <path id="패스_107" data-name="패스 107" d="M334.123,434.012c0-1.812,0-3.543,2.362-3.543s2.362,1.731,2.362,3.543c0,1.789,0,3.535-2.362,3.535S334.123,435.8,334.123,434.012Zm3.27,0c0-1.757-.1-2.514-.909-2.514s-.907.756-.907,2.514.1,2.51.907,2.51S337.393,435.762,337.393,434.012Z" transform="translate(-242.651 -430.469)" fill="#fff"/>
          <path id="패스_108" data-name="패스 108" d="M347.958,430.635v4.848a2.04,2.04,0,0,1-2.327,2.108c-1.57,0-2.327-.815-2.327-2.108v-3.932a.912.912,0,0,1,.269-.651.936.936,0,0,1,.655-.265h.506v4.755c0,.845.363,1.177.878,1.177.627,0,.915-.412.915-1.177v-3.839a.926.926,0,0,1,.269-.651.94.94,0,0,1,.651-.265Z" transform="translate(-245.148 -430.514)" fill="#fff"/>
          <path id="패스_109" data-name="패스 109" d="M352.486,437.475v-5.924a.921.921,0,0,1,.265-.651.944.944,0,0,1,.655-.265h1.01l1.824,4.739h.015v-4.739h1.337v6.84h-1.887l-1.867-5h-.02v5Z" transform="translate(-247.645 -430.514)" fill="#fff"/>
          <path id="패스_110" data-name="패스 110" d="M362.369,431.551a.923.923,0,0,1,.264-.651.937.937,0,0,1,.656-.265h1.464c1.88,0,2.226,1.247,2.226,3.383,0,1.048.165,3.457-2.285,3.457h-1.406a.91.91,0,0,1-.92-.919Zm1.431,4.879h.694c.868,0,1.037-.659,1.037-2.373,0-1.263,0-2.373-.994-2.373H363.8Z" transform="translate(-250.333 -430.514)" fill="#fff"/>
          <path id="패스_111" data-name="패스 111" d="M370.736,437.475l1.707-6.169a.925.925,0,0,1,.893-.67h1.185l1.855,6.84h-.783a.913.913,0,0,1-.569-.194.926.926,0,0,1-.331-.5l-.206-.822h-1.949l-.39,1.52Zm2.76-5.523h-.02l-.654,2.959h1.364Z" transform="translate(-252.608 -430.514)" fill="#fff"/>
          <path id="패스_112" data-name="패스 112" d="M383.675,430.635v1.134h-1.594v5.706h-.507a.917.917,0,0,1-.923-.919v-4.787h-1.594v-.218a.945.945,0,0,1,.269-.651.934.934,0,0,1,.654-.265Z" transform="translate(-254.871 -430.514)" fill="#fff"/>
          <path id="패스_113" data-name="패스 113" d="M388.406,437.475a.919.919,0,0,1-.924-.919v-5a.912.912,0,0,1,.924-.916h.507v6.84Z" transform="translate(-257.163 -430.514)" fill="#fff"/>
          <path id="패스_114" data-name="패스 114" d="M392.178,434.012c0-1.812,0-3.543,2.362-3.543s2.362,1.731,2.362,3.543c0,1.789,0,3.535-2.362,3.535S392.178,435.8,392.178,434.012Zm3.273,0c0-1.757-.106-2.514-.911-2.514s-.909.756-.909,2.514.1,2.51.909,2.51S395.451,435.762,395.451,434.012Z" transform="translate(-258.44 -430.469)" fill="#fff"/>
          <path id="패스_115" data-name="패스 115" d="M401.412,437.475v-5.924a.911.911,0,0,1,.925-.916h1.009l1.82,4.739h.02v-4.739h1.337v6.84h-1.886l-1.872-5h-.015v5Z" transform="translate(-260.951 -430.514)" fill="#fff"/>
        </g>
        <g id="그룹_118" data-name="그룹 118">
          <path id="패스_116" data-name="패스 116" d="M209.443,392.174a2.724,2.724,0,0,1,1.111.628,2.636,2.636,0,0,1,.284,1.524v5.009a2.235,2.235,0,0,0,.577,1.54,1.983,1.983,0,0,0,1.543.635h9.128a1.86,1.86,0,0,0,1.329-.558,1.9,1.9,0,0,0,.55-1.345v-7.226a1.934,1.934,0,0,0-.437-1.224,1.858,1.858,0,0,0-1.108-.655l-2-.37c-.573-.086-.915.066-1.021.464a.581.581,0,0,0,.429.791,3.057,3.057,0,0,1,1.115.585,2.133,2.133,0,0,1,.285,1.372v1.5h-7.651V393.18a1.923,1.923,0,0,0-.437-1.216,1.851,1.851,0,0,0-1.091-.655l-1.991-.39c-.593-.087-.936.066-1.033.467A.584.584,0,0,0,209.443,392.174Zm4.135,4.907a.625.625,0,0,1,.183-.444.634.634,0,0,1,.448-.187h7.02v2.822a.648.648,0,0,1-.187.452.655.655,0,0,1-.452.187h-6.556a.57.57,0,0,1-.378-.086.748.748,0,0,1-.078-.433Z" transform="translate(-205.202 -389.114)" fill="#fff"/>
          <path id="패스_117" data-name="패스 117" d="M245.848,399.394l5.266,5.223a1.527,1.527,0,0,0,1.1.3c.539,0,.807-.23.807-.686a3.67,3.67,0,0,0-.327-1.477,3.322,3.322,0,0,0-1.044-1.321l-4.775-3.539a18.781,18.781,0,0,0,1.3-2.573,14.005,14.005,0,0,0,.564-1.68,1.105,1.105,0,0,0-.1-1.123,1.464,1.464,0,0,0-.81-.518l-2.705-.775a1.643,1.643,0,0,0-.911,0,.809.809,0,0,0-.538.382.666.666,0,0,0,.031.41.626.626,0,0,0,.347.378,7.014,7.014,0,0,1,1.22.912,1.151,1.151,0,0,1,.258,1.4,18.851,18.851,0,0,1-2.729,4.67,40.05,40.05,0,0,1-4.148,4.447.668.668,0,0,0-.2.452.7.7,0,0,0,.09.421,1.116,1.116,0,0,0,.783.285,1.4,1.4,0,0,0,.8-.175,25.286,25.286,0,0,0,3.223-2.587A18.328,18.328,0,0,0,245.848,399.394Z" transform="translate(-213.214 -389.4)" fill="#fff"/>
          <path id="패스_118" data-name="패스 118" d="M315.824,392.94l5.051.436a2.157,2.157,0,0,0,.721-.16.587.587,0,0,0,.434-.573,1.014,1.014,0,0,0-.242-.671.961.961,0,0,0-.7-.315l-5.773-.511a1.069,1.069,0,0,0-.659.187.532.532,0,0,0-.257.409,1.093,1.093,0,0,0,.417.748A1.613,1.613,0,0,0,315.824,392.94Z" transform="translate(-233.87 -389.396)" fill="#fff"/>
          <path id="패스_119" data-name="패스 119" d="M365.764,389.234a.581.581,0,0,0,.427.788,7.81,7.81,0,0,1,1.384.654c.351.218.523.713.523,1.5v6.641h-1.814v-6.949a1.907,1.907,0,0,0-.448-1.236,1.875,1.875,0,0,0-1.135-.647l-2.47-.394c-.573-.093-.912.063-1.018.464a.576.576,0,0,0,.43.784,6.4,6.4,0,0,1,1.38.639c.354.23.529.74.529,1.543v19.2a.863.863,0,0,0,.25.6.912.912,0,0,0,.686.268,1.635,1.635,0,0,0,1.367-.541,2.131,2.131,0,0,0,.429-1.364V400.42H368.1v12.616a.836.836,0,0,0,.26.573.881.881,0,0,0,.682.269,1.665,1.665,0,0,0,1.372-.526,2.167,2.167,0,0,0,.425-1.376v-20.91a1.928,1.928,0,0,0-.44-1.232,1.9,1.9,0,0,0-1.131-.651l-2.483-.417C366.212,388.676,365.873,388.837,365.764,389.234Z" transform="translate(-246.592 -388.742)" fill="#fff"/>
          <path id="패스_120" data-name="패스 120" d="M261.278,418.047h-10.31c-.214,0-.35-.031-.4-.094a.885.885,0,0,1-.082-.5v-3.219a1.926,1.926,0,0,0-.436-1.22,1.891,1.891,0,0,0-1.108-.658l-1.976-.363c-.569-.09-.912.062-1.017.463a.575.575,0,0,0,.4.788,2.531,2.531,0,0,1,1.115.6,2.651,2.651,0,0,1,.281,1.528v2.108a2.17,2.17,0,0,0,.592,1.513,1.991,1.991,0,0,0,1.533.634h11.408a.789.789,0,0,0,0-1.578Z" transform="translate(-215.243 -395.058)" fill="#fff"/>
          <path id="패스_121" data-name="패스 121" d="M234.13,409.531h0v0Z" transform="translate(-212.039 -394.396)" fill="#fff"/>
          <path id="패스_122" data-name="패스 122" d="M227.116,410.334a.8.8,0,0,0-.791-.8H204.374a.793.793,0,0,0-.35.149c-.16.1-.238.207-.238.315a1.028,1.028,0,0,0,.429.772,1.288,1.288,0,0,0,.831.365H214.5v7.8a.812.812,0,0,0,.257.572.847.847,0,0,0,.656.273,1.685,1.685,0,0,0,1.383-.545,2.1,2.1,0,0,0,.443-1.359v-6.744h9.082A.792.792,0,0,0,227.116,410.334Z" transform="translate(-203.786 -394.396)" fill="#fff"/>
          <path id="패스_123" data-name="패스 123" d="M297.17,406.244H275a.765.765,0,0,0-.352.148c-.159.1-.242.194-.242.284a1.045,1.045,0,0,0,.43.8,1.269,1.269,0,0,0,.831.374h9.747v5.331a.816.816,0,0,0,.253.546.909.909,0,0,0,.686.273,1.647,1.647,0,0,0,1.368-.546,2.12,2.12,0,0,0,.429-1.36V407.85h9.023a.8.8,0,0,0,0-1.606Z" transform="translate(-222.992 -393.502)" fill="#fff"/>
          <path id="패스_124" data-name="패스 124" d="M323.276,395.6H311.233a.739.739,0,0,0-.339.144c-.152.1-.23.2-.23.285a1.006,1.006,0,0,0,.433.791,1.344,1.344,0,0,0,.885.355h11.295a.787.787,0,0,0,0-1.575Z" transform="translate(-232.853 -390.606)" fill="#fff"/>
          <path id="패스_125" data-name="패스 125" d="M361.261,394.124h0v0Z" transform="translate(-246.614 -390.206)" fill="#fff"/>
          <path id="패스_126" data-name="패스 126" d="M357.614,405.981a4.866,4.866,0,0,0-.916-1.372l-4.428-4.5a19.664,19.664,0,0,0,.885-2.241,17.69,17.69,0,0,0,.565-2.14H356.8a.8.8,0,0,0,0-1.606h-9.959a.793.793,0,0,0-.347.152c-.163.1-.242.206-.242.312a1.015,1.015,0,0,0,.43.791,1.3,1.3,0,0,0,.831.351h3.313a24.544,24.544,0,0,1-2.055,5.842,21.333,21.333,0,0,1-3.718,5.539.561.561,0,0,0-.2.409.623.623,0,0,0,.093.406,1.12,1.12,0,0,0,.78.288,1.478,1.478,0,0,0,.807-.175,13.407,13.407,0,0,0,2.724-2.74,19.327,19.327,0,0,0,2.1-3.332l4.537,5.772a1.523,1.523,0,0,0,1.1.351.743.743,0,0,0,.862-.788A2.783,2.783,0,0,0,357.614,405.981Z" transform="translate(-242.149 -390.206)" fill="#fff"/>
          <path id="패스_127" data-name="패스 127" d="M396.807,393.626h-.063l.063.024Z" transform="translate(-256.264 -390.071)" fill="#fff"/>
          <path id="패스_128" data-name="패스 128" d="M401.489,418.047H390.958c-.214,0-.351-.031-.406-.094a.99.99,0,0,1-.076-.5v-3.219a1.923,1.923,0,0,0-.438-1.22,1.872,1.872,0,0,0-1.107-.658l-1.972-.363c-.577-.09-.915.062-1.021.463a.572.572,0,0,0,.4.788,2.549,2.549,0,0,1,1.115.6,2.643,2.643,0,0,1,.282,1.528v2.108a2.186,2.186,0,0,0,.588,1.513,2.007,2.007,0,0,0,1.536.634h11.63a.789.789,0,0,0,0-1.578Z" transform="translate(-253.315 -395.058)" fill="#fff"/>
          <path id="패스_129" data-name="패스 129" d="M295.27,418.047H284.708c-.2,0-.32-.031-.371-.094a.874.874,0,0,1-.085-.5v-3.216a1.913,1.913,0,0,0-.437-1.224,1.846,1.846,0,0,0-1.107-.651l-2-.37c-.574-.09-.912.062-1.017.463a.575.575,0,0,0,.428.788,2.557,2.557,0,0,1,1.115.6,2.65,2.65,0,0,1,.281,1.528v2.108a2.192,2.192,0,0,0,.577,1.513,1.939,1.939,0,0,0,1.516.634H295.27a.789.789,0,0,0,0-1.578Z" transform="translate(-224.42 -395.058)" fill="#fff"/>
          <path id="패스_130" data-name="패스 130" d="M264.187,396.936v-5.869a1.908,1.908,0,0,0-.449-1.232,1.879,1.879,0,0,0-1.126-.651l-2.48-.417c-.577-.09-.916.07-1.021.467a.573.573,0,0,0,.4.788,7.665,7.665,0,0,1,1.41.666q.521.34.522,1.54v15.107a.9.9,0,0,0,.912.873,1.674,1.674,0,0,0,1.384-.549,2.064,2.064,0,0,0,.444-1.353v-7.764h4.322a.8.8,0,0,0,0-1.605Z" transform="translate(-218.823 -388.742)" fill="#fff"/>
          <path id="패스_131" data-name="패스 131" d="M333.2,398.814h-4.322v-7.748a1.909,1.909,0,0,0-.446-1.232,1.879,1.879,0,0,0-1.126-.651l-2.482-.417c-.573-.09-.911.07-1.021.467a.574.574,0,0,0,.4.788,7.863,7.863,0,0,1,1.407.654c.347.218.523.725.523,1.524v13.42a19.462,19.462,0,0,1-3.4.857,30.091,30.091,0,0,1-4.205.366v-2.8a7.208,7.208,0,0,0,2.022-.834,3.785,3.785,0,0,0,.141-6.283,6.3,6.3,0,0,0-3.633-1.1,5.454,5.454,0,0,0-3.792,1.263,3.778,3.778,0,0,0-1.4,2.9,3.674,3.674,0,0,0,1.572,3.083,5.787,5.787,0,0,0,2.357,1.048v2.728h-5.675a.808.808,0,0,0-.335.152c-.151.1-.226.195-.226.285a1.019,1.019,0,0,0,.429.791,1.367,1.367,0,0,0,.862.35h6.613a35.757,35.757,0,0,0,5.18-.37,18.959,18.959,0,0,0,3.5-.8v5.816a.8.8,0,0,0,.257.542.848.848,0,0,0,.655.269,1.7,1.7,0,0,0,1.383-.526,2.086,2.086,0,0,0,.446-1.376V400.42H333.2a.8.8,0,0,0,0-1.606Zm-18.849,1.169a2.619,2.619,0,0,1,.7-1.878,2.664,2.664,0,0,1,2.035-.737,2.975,2.975,0,0,1,1.984.655,2.433,2.433,0,0,1,.772,1.961,2.356,2.356,0,0,1-.9,2.144,3.367,3.367,0,0,1-1.831.58,2.949,2.949,0,0,1-1.937-.674A2.485,2.485,0,0,1,314.355,399.984Z" transform="translate(-232.553 -388.742)" fill="#fff"/>
          <path id="패스_132" data-name="패스 132" d="M408.516,396.936h-4.322v-5.869a1.913,1.913,0,0,0-.448-1.232,1.858,1.858,0,0,0-1.123-.651l-2.483-.417c-.572-.09-.912.07-1.017.467a.573.573,0,0,0,.4.788,7.688,7.688,0,0,1,1.412.666c.347.226.522.74.522,1.54v15.107a.906.906,0,0,0,.909.873,1.675,1.675,0,0,0,1.387-.549,2.086,2.086,0,0,0,.44-1.353v-7.764h4.322a.8.8,0,0,0,0-1.605Z" transform="translate(-256.901 -388.742)" fill="#fff"/>
          <path id="패스_133" data-name="패스 133" d="M294.143,391.532a1.868,1.868,0,0,0-1.329-.558h-9.732a15.032,15.032,0,0,1-1.727-.351c-.573-.09-.911.067-1.021.465a.828.828,0,0,0,.429.873,1.966,1.966,0,0,1,.518.389,2.145,2.145,0,0,1,.284,1.376v.982h0v2.662a2.166,2.166,0,0,0,.577,1.513,1.97,1.97,0,0,0,1.543.643h9.129a1.857,1.857,0,0,0,1.329-.561,1.911,1.911,0,0,0,.549-1.348v-4.739A1.916,1.916,0,0,0,294.143,391.532Zm-2.186,5.753a.64.64,0,0,1-.632.631h-6.563c-.2,0-.327-.031-.379-.094a.81.81,0,0,1-.078-.452v-4.154a.625.625,0,0,1,.624-.635h7.028Z" transform="translate(-224.599 -389.247)" fill="#fff"/>
          <path id="패스_134" data-name="패스 134" d="M387.611,402.943h-2.365a.466.466,0,0,1-.347-.094.868.868,0,0,1-.078-.479v-6.392l0-.245a.649.649,0,0,1,.183-.452.608.608,0,0,1,.441-.183h7.031a.793.793,0,0,0,0-1.586l-.063-.023H383.6a15.336,15.336,0,0,1-1.727-.347c-.577-.09-.912.067-1.018.465a.834.834,0,0,0,.425.876,1.692,1.692,0,0,1,.518.386,1.789,1.789,0,0,1,.282,1.111v6.392a2.178,2.178,0,0,0,.58,1.516,1.941,1.941,0,0,0,1.513.636h3.141a36.3,36.3,0,0,0,9.179-1.474v-1.7A33.323,33.323,0,0,1,387.611,402.943Z" transform="translate(-251.938 -389.932)" fill="#fff"/>
        </g>
      </g>
    </g>
  </g>
</svg>
